#!OML:ASF F:\VICON\USERDATA\INSTALL\rory3\rory3.ASF
:FULLY-SPECIFIED
:DEGREES
72
root 0.2219223571281837 18.477565014672688 31.457628743067122 -6.299340797585602 -0.843229348483729 -8.370722063228525
lfemur -26.391195445975466 0.8997060746837728 -8.586438884138158
ltibia 77.85200139090394
lfoot 10.768957389549774 -10.569842874966618
ltoes -0.8507239008862157
rfemur 4.5692746964489555 7.674344640819935 37.781392352925934
rtibia 3.894043264939242
rfoot -13.6592536601283 -6.192614345725868
rtoes 14.106422712850815
lowerback 8.126776010163862 0.2586435620274991 6.861063308502907
upperback 0.5151547477205871 1.4386282638403918 3.5661646660736377
thorax -4.050528026173163 0.5387141902900356 -0.6386497942903587
lowerneck -14.427950038011446 -2.7741518195230057 -1.7180579067067319
upperneck 24.57264395837198 -3.3903588865693677 -0.9260795579363714
head 10.13239147454567 -1.7981787340277846 -0.4725718250543435
lclavicle -1.4873791975076307e-15 -1.2178058545413767e-15
lhumerus -33.98721357433755 6.924943223938589 78.97867080215404
lradius 1.5050887016842296
lwrist -2.7300244853655684
lhand -29.107340027430713 28.149578351264424
lfingers 7.125020000000055
lthumb -2.454953343240529 58.11917636606708
rclavicle -1.487379197507631e-15 -1.217805854541377e-15
rhumerus -22.052502038786862 -30.17120476486641 -70.38036785036037
rradius 2.6796796142341677
rwrist 12.521594288084891
rhand -16.71497452097188 27.033390566617143
rfingers 7.125020000000055
rthumb 9.509604398523333 -7.750030738125222
73
root 0.23055881092135833 18.446153919189477 32.151980249729796 -6.178175800370195 -1.4629570139697559 -9.301495448266362
lfemur -33.06032429744276 1.3965310639864652 -7.180395302249389
ltibia 73.2874867104706
lfoot 4.284183525286037 -5.974058885500892
ltoes -0.2966747838659467
rfemur 9.404111997933954 8.150630916003939 39.12392733148951
rtibia 2.238068291543705
rfoot -17.105568144701152 -7.631448018580087
rtoes 13.777208202021585
lowerback 7.857824946430894 0.8884281739596278 8.032270033642538
upperback 0.5895610697415219 2.394419602129346 3.359467699343607
thorax -3.8066178077637347 0.9748240907535006 -1.6909381707215183
lowerneck -14.440481046801724 -2.9196553191469894 -1.6162761501780192
upperneck 24.471569958298502 -3.643078278603974 -0.86652432563629
head 10.098730426650251 -1.8988960893820588 -0.49520677310216366
lclavicle -1.706986172503083e-15 -1.3877668212879241e-15
lhumerus -35.62777358530307 8.845250599864942 78.30717300627786
lradius -2.943284428800389
lwrist -3.815710065715564
lhand -29.299629707972404 28.772739941941353
lfingers 7.125020000000055
lthumb -2.640651647170748 58.74725476377442
rclavicle -1.706986172503083e-15 -1.387766821287925e-15
rhumerus -17.455783378196404 -27.184949607237694 -72.36901391356784
rradius 1.3500895218308742
rwrist 10.232723497810227
rhand -16.73733547839877 26.61410809033157
rfingers 7.125020000000055
rthumb 9.487781377401943 -7.856086902524492
74
root 0.24704169577561352 18.351259374945275 31.993091938242287 -5.70384490256289 -1.9462357726991053 -9.804870966147645
lfemur -37.95314779110879 1.6321073750710886 -6.315304143203804
ltibia 66.34793727733057
lfoot -1.9964561048366045 -1.5753079755249595
ltoes -0.033336813643130014
rfemur 13.758966274904092 8.686458312538544 39.699402254440855
rtibia 1.9981233273902461
rfoot -19.265105984276392 -8.941977562222585
rtoes 13.085558196536216
lowerback 7.765613199166788 1.5161985176457287 8.798852234542405
upperback 0.6335101418788727 3.290275083385182 3.0813843767548788
thorax -3.6554676284407632 1.3912467483322337 -2.5498111157191614
lowerneck -14.554650340411897 -3.094205510825749 -1.5186440781237307
upperneck 24.112431838614185 -3.9363191023308524 -0.6801590044986403
head 10.00898266791343 -2.013624312851636 -0.48063841350891057
lclavicle -1.7086522696191765e-15 -1.3890260939181435e-15
lhumerus -37.11083342206701 10.416698063396504 77.92395989346069
lradius -5.031134539558828
lwrist -4.043297152104561
lhand -29.40942576095992 29.170107870630254
lfingers 7.125020000000055
lthumb -2.746718557855025 59.14637614672209
rclavicle -1.7086522696191765e-15 -1.3890260939181435e-15
rhumerus -13.589537564879357 -23.762996421612588 -74.38273804116899
rradius 1.8392756475897656
rwrist 7.908532972372103
rhand -16.87946754963886 26.414919935171934
rfingers 7.125020000000055
rthumb 9.350489430661966 -7.807133732161329
75
root 0.2582108828228922 18.245026177898318 29.528661725816935 -4.864581410672469 -2.1736479488514524 -9.412604260299046
lfemur -38.53739762340653 1.51257817733182 -6.936483480167274
ltibia 59.21519209462599
lfoot -6.784786060671976 1.6190962332587864
ltoes -0.18481627371433174
rfemur 13.66235695491205 8.796872369836963 38.81318024170893
rtibia 3.2795882482376513
rfoot -20.591069389175434 -10.255562946103804
rtoes 11.362946468219457
lowerback 8.056704539927605 1.7562484895143262 8.50559541451117
upperback 0.6299525111018833 3.552572564434162 2.798612978334303
thorax -3.7900130674881765 1.5250498240462966 -2.7115689647273444
lowerneck -14.875254406433417 -3.2073952323306245 -1.4922323514283842
upperneck 23.313692910102237 -4.129358832711472 -0.38763862295098184
head 9.814076112351236 -2.07703925938751 -0.4040410973538837
lclavicle -1.7222091028906106e-15 -1.3995390606799729e-15
lhumerus -37.544666279489164 10.128620794362272 78.25012592919974
lradius -2.200267320406624
lwrist -2.717579223422522
lhand -29.51324908173458 28.4752898678965
lfingers 7.125020000000055
lthumb -2.847038651389883 58.44716579100154
rclavicle -1.7222091028906114e-15 -1.399539060679973e-15
rhumerus -12.870190159441083 -20.52759798222576 -76.45845194381087
rradius 5.466304168159944
rwrist 5.62007525404204
rhand -17.12568028598207 26.67654956561068
rfingers 7.125020000000055
rthumb 9.112943605619282 -7.49664872293785
76
root 0.27402749795004566 18.078649626823292 26.089849493561086 -3.8567228470187453 -2.165470901115248 -8.503221826050954
lfemur -36.61266202213823 1.142887992810942 -8.293561891246979
ltibia 51.9154536109596
lfoot -11.464782689349304 4.149402631240275
ltoes -1.3418948895963867
rfemur 11.31034651123422 8.539376388361697 36.95017734875458
rtibia 8.356212884843949
rfoot -20.51701095842362 -10.916456599856765
rtoes 10.110099150013598
lowerback 8.620733573757999 1.894855214827492 7.584596897368657
upperback 0.6120186183584242 3.586289703449614 2.4465089842610843
thorax -4.09269888246425 1.5667674532581115 -2.5403849994396013
lowerneck -15.353669372443655 -3.324511898240448 -1.5061910386889878
upperneck 22.230365339664132 -4.329516964084959 0.03321101898254519
head 9.556054420671641 -2.133380850483541 -0.2790635271081323
lclavicle -1.653316751493189e-15 -1.3463453879195887e-15
lhumerus -37.33460749063664 8.741886616076984 79.05388898321716
lradius 3.7342846080386565
lwrist -0.5575776796841616
lhand -29.67467068309542 26.866001711029888
lfingers 7.125020000000055
lthumb -3.0029639187870165 56.831559563081036
rclavicle -1.653316751493189e-15 -1.346345387919589e-15
rhumerus -14.082528397380688 -17.57190801322843 -78.43566956713794
rradius 11.239144297475768
rwrist 3.609123880408384
rhand -17.372375196208104 27.511037878767198
rfingers 7.125020000000055
rthumb 8.874992800810107 -7.008182925766011
77
root 0.29978540765422246 17.91628630179265 22.607037174128514 -2.84820732194284 -2.1499893117351716 -7.499953069345388
lfemur -33.19635321978832 0.5523129423970072 -9.77791756678384
ltibia 44.77465643375979
lfoot -15.257648548128389 6.23585031003141
ltoes -3.911801697790255
rfemur 7.601562432645922 7.952280830439253 34.928976591378806
rtibia 15.516743117825278
rfoot -20.86794198754952 -11.16856873651745
rtoes 8.68567292646744
lowerback 9.292169673830202 1.9068711794787632 6.49406283385234
upperback 0.615914139245167 3.433297974823857 2.155064390720379
thorax -4.413234294436673 1.5246342510558026 -2.1134308621955538
lowerneck -15.867330238012798 -3.359596163723067 -1.5097086135994775
upperneck 21.19818724038573 -4.4077733623965765 0.46125344140581026
head 9.324228827748778 -2.1338509212497336 -0.14498587843525113
lclavicle -1.3950302771531393e-15 -1.1462598007633577e-15
lhumerus -36.12078735965299 7.485283065210542 79.9204149986402
lradius 10.189417459882591
lwrist 1.561202238410777
lhand -29.84063167708114 25.32442903639029
lfingers 7.125020000000056
lthumb -3.163277972593121 55.286800648318135
rclavicle -1.3950302771531395e-15 -1.1462598007633577e-15
rhumerus -15.898070153564678 -15.235672335158807 -79.86813773767716
rradius 16.887499735059208
rwrist 2.3497871699851167
rhand -17.64604124869123 28.76009081253337
rfingers 7.125020000000056
rthumb 8.611214420525249 -6.786304398008819
78
root 0.33314599029013137 17.738784237180685 18.12920982369487 -2.1052755437212665 -2.177383214938688 -6.602132037070412
lfemur -29.278210673447084 -0.21488434821863955 -11.05312423659842
ltibia 38.093327970748895
lfoot -18.193908391304632 7.817891075799248
ltoes -6.644645108591211
rfemur 3.583196941075501 7.179285051023795 33.027215597707766
rtibia 23.458544570031254
rfoot -21.148580954909338 -10.501951941467647
rtoes 7.940994716032151
lowerback 9.93451433492325 1.867947174842997 5.410695696137176
upperback 0.6468013194326456 3.2022541303610614 1.9263147055418441
thorax -4.68979511850857 1.448900681323227 -1.619379514215579
lowerneck -16.3193528791963 -3.3433988728242614 -1.4779395868418699
upperneck 20.439039830667326 -4.408464992423367 0.7649103770833676
head 9.16573256951199 -2.108753313029176 -0.05383172817972237
lclavicle -1.1825618917016618e-15 -9.817904013760508e-16
lhumerus -34.22097384400665 6.5065813701515225 80.42114540949375
lradius 14.294248382847535
lwrist 2.7796198757409307
lhand -30.01352412351913 24.265430292297502
lfingers 7.125020000000056
lthumb -3.3302379428344127 54.2237503368872
rclavicle -1.1825618917016618e-15 -9.817904013760508e-16
rhumerus -17.75390006163736 -14.357779290651727 -80.41226014509883
rradius 19.942792046070316
rwrist 2.1472759324058677
rhand -17.88393575419508 30.248829632398408
rfingers 7.125020000000056
rthumb 8.381961510894696 -6.840619920331307
79
root 0.35406093469592104 17.621886369722095 14.69541762972191 -1.5506147646182615 -2.1823748350456746 -5.9805242730651695
lfemur -25.92327946613917 -0.9634920091976414 -12.05601975749527
ltibia 33.12561856984303
lfoot -18.465238199459822 7.841846117597487
ltoes -8.594017477552583
rfemur 0.5963020112667721 6.460678493694129 31.693406277599806
rtibia 30.782929070754243
rfoot -20.19548609023738 -9.320030111922142
rtoes 7.444917990235984
lowerback 10.416508074564439 1.8258523799283601 4.616631631391332
upperback 0.6176506223844775 3.0114425025058886 1.7840635434559602
thorax -4.97024197713456 1.3842190883185896 -1.229194196793312
lowerneck -16.63424957904775 -3.334850390572789 -1.454273790790143
upperneck 19.836393269806756 -4.4126620238054945 0.9870082648974274
head 9.03199187605942 -2.0901738289472784 0.014152704742417643
lclavicle -1.0368193075528924e-15 -8.688469503184651e-16
lhumerus -33.10835792289987 5.9365441586712855 80.8569464812085
lradius 18.253367359754634
lwrist 3.6920683985549587
lhand -30.097921816578836 23.069890600366755
lfingers 7.125020000000057
lthumb -3.411754150537358 53.028008752582394
rclavicle -1.0368193075528918e-15 -8.688469503184648e-16
rhumerus -19.767140255355674 -13.758640382950366 -80.72901937652595
rradius 23.22225834909259
rwrist 1.9953398012267165
rhand -18.00877559231388 31.58256164718269
rfingers 7.125020000000057
rthumb 8.261682847129542 -6.6663572211173925
